<?xml version="1.0" encoding="UTF-8" standalone="no"?>
<!DOCTYPE svg PUBLIC "-//W3C//DTD SVG 1.1//EN" "http://www.w3.org/Graphics/SVG/1.1/DTD/svg11.dtd">
<svg width="100%" height="100%" viewBox="0 0 16 16" version="1.1" xmlns="http://www.w3.org/2000/svg" xmlns:xlink="http://www.w3.org/1999/xlink" xml:space="preserve" xmlns:serif="http://www.serif.com/" style="fill-rule:evenodd;clip-rule:evenodd;stroke-linejoin:round;stroke-miterlimit:2;">
    <g transform="matrix(0.1,0,0,-0.1,10,210)">
        <g transform="matrix(0.603774,0,0,-0.52459,-96.9811,2097.38)">
            <rect x="-5" y="-5" width="265" height="305"/>
        </g>
        <g transform="matrix(0.0727273,0,0,0.0727273,-92.7273,1947.27)">
            <path d="M780,1970C408,1877 128,1601 34,1231C5,1118 1,916 25,801C105,421 406,116 792,25C879,5 1117,5 1207,26C1580,112 1864,387 1968,762C1993,853 1992,1148 1967,1240C1868,1600 1590,1875 1231,1966C1109,1997 897,1999 780,1970ZM1200,1826C1502,1748 1737,1521 1822,1224C1854,1111 1854,890 1822,777C1737,479 1512,258 1200,169C1128,148 859,151 785,174C479,267 262,482 178,777C146,890 146,1111 178,1225C230,1408 363,1596 515,1700C570,1738 709,1804 771,1821C884,1852 1090,1854 1200,1826Z" style="fill:white;fill-rule:nonzero;stroke:white;stroke-width:10px;"/>
        </g>
        <g transform="matrix(0.0727273,0,0,0.0727273,-92.7273,1947.27)">
            <path d="M765,1681C557,1608 385,1433 315,1226C301,1183 291,1146 293,1144C296,1141 476,1100 486,1100C487,1100 495,1124 504,1153C549,1306 674,1434 836,1491C868,1502 896,1513 897,1514C898,1514 890,1558 879,1610C869,1662 860,1706 860,1708C860,1713 841,1708 765,1681Z" style="fill:white;fill-rule:nonzero;stroke:white;stroke-width:10px;"/>
        </g>
        <g transform="matrix(0.0727273,0,0,0.0727273,-92.7273,1947.27)">
            <path d="M875,1352C800,1319 774,1302 727,1251C648,1166 615,1059 631,942C643,858 680,791 752,725C827,655 899,627 1000,627C1110,627 1177,656 1261,739C1344,822 1373,889 1373,1000C1373,1102 1345,1173 1273,1250C1194,1336 1132,1364 1010,1367C937,1369 906,1366 875,1352ZM1064,1064C1123,1005 1084,910 1000,910C945,910 910,944 910,998C910,1081 1006,1122 1064,1064Z" style="fill:white;fill-rule:nonzero;stroke:white;stroke-width:10px;"/>
        </g>
        <g transform="matrix(0.0727273,0,0,0.0727273,-92.7273,1947.27)">
            <path d="M1512,888C1505,881 1500,869 1500,859C1500,828 1430,702 1384,651C1329,590 1231,527 1156,505C1125,496 1100,488 1100,486C1100,479 1142,295 1144,293C1145,291 1171,297 1201,306C1384,360 1537,482 1633,651C1659,697 1714,849 1708,856C1706,858 1670,866 1629,875C1588,884 1548,893 1540,895C1531,898 1519,895 1512,888Z" style="fill:white;fill-rule:nonzero;stroke:white;stroke-width:10px;"/>
        </g>
    </g>
</svg>
